<svg id="Calque_1" data-name="Calque 1" xmlns="http://www.w3.org/2000/svg" viewBox="0 0 268.21 51.11"><defs><style>.cls-1,.cls-2{fill:#fff;}.cls-2{stroke:#fff;stroke-miterlimit:10;}</style></defs><path class="cls-1" d="M34.56,34.58A10.82,10.82,0,0,1,23.31,24.2,10.82,10.82,0,0,1,34,13.22a11.07,11.07,0,0,1,5.18,1.11,11.31,11.31,0,0,1,3.34-1,13.81,13.81,0,0,0-8-2.28c-7.43.21-13.3,6.15-13.1,13.27s6.39,12.73,13.82,12.52a13.84,13.84,0,0,0,7.33-2.32,11.16,11.16,0,0,1-3.5-1A11,11,0,0,1,34.56,34.58Z"/><line class="cls-2" x1="26.71" y1="15.25" x2="23.08" y2="9.83"/><circle class="cls-1" cx="22.47" cy="9.27" r="1.21"/><line class="cls-2" x1="22.74" y1="26.49" x2="17.14" y2="29.02"/><circle class="cls-1" cx="16.49" cy="29.54" r="1.21"/><line class="cls-2" x1="23.57" y1="28.64" x2="20.51" y2="31.34"/><circle class="cls-1" cx="20" cy="31.99" r="1.21"/><line class="cls-2" x1="28.86" y1="13.93" x2="27.23" y2="9.06"/><circle class="cls-1" cx="26.79" cy="8.36" r="1.21"/><line class="cls-2" x1="27.37" y1="33.59" x2="23.75" y2="38.64"/><circle class="cls-1" cx="23.47" cy="39.42" r="1.21"/><line class="cls-2" x1="31.34" y1="12.77" x2="31.11" y2="9.8"/><circle class="cls-1" cx="31.14" cy="9.14" r="0.84"/><line class="cls-2" x1="31.15" y1="35.23" x2="30.51" y2="40.45"/><circle class="cls-1" cx="30.49" cy="41.14" r="0.84"/><line class="cls-2" x1="22.41" y1="24.84" x2="17.53" y2="24.65"/><circle class="cls-1" cx="16.73" cy="24.88" r="1.21"/><line class="cls-2" x1="24.23" y1="18.06" x2="21.81" y2="14.69"/><circle class="cls-1" cx="21.31" cy="14.33" r="1.06"/><line class="cls-2" x1="29.52" y1="34.59" x2="27.26" y2="38.99"/><circle class="cls-1" cx="27.17" cy="39.6" r="1.06"/><line class="cls-2" x1="22.41" y1="20.21" x2="18.77" y2="17.39"/><circle class="cls-1" cx="18" cy="17.08" r="1.21"/><line class="cls-2" x1="22.07" y1="22.5" x2="13.3" y2="19.11"/><ellipse class="cls-1" cx="12.25" cy="18.77" rx="1.53" ry="1.61" transform="translate(-0.52 0.35) rotate(-1.59)"/><line class="cls-2" x1="33.98" y1="35.74" x2="34.28" y2="43.02"/><ellipse class="cls-1" cx="34.4" cy="43.86" rx="1.63" ry="1.53" transform="translate(-15.36 18.75) rotate(-25.12)"/><line class="cls-2" x1="25.22" y1="31.45" x2="19.78" y2="36.34"/><ellipse class="cls-1" cx="19.04" cy="37.12" rx="1.53" ry="1.56" transform="translate(-22.68 37.73) rotate(-63.68)"/><path class="cls-1" d="M34,15a9.17,9.17,0,0,0-9.11,9.23A9.17,9.17,0,0,0,34.54,33a9.17,9.17,0,0,0,9.11-9.23A9.18,9.18,0,0,0,34,15Zm4.28,8.83A2.82,2.82,0,1,1,41.14,21,2.85,2.85,0,0,1,38.32,23.86Z"/><path class="cls-1" d="M61,25.91l0,0a2.65,2.65,0,0,1-.7,2.05,2.9,2.9,0,0,1-2.07.68,3,3,0,0,1-2.19-.81,3.15,3.15,0,0,1-.8-2.3V23a3.2,3.2,0,0,1,.78-2.31,2.76,2.76,0,0,1,2.11-.82,3.07,3.07,0,0,1,2.15.68,2.57,2.57,0,0,1,.73,2.05v0H59.43a1.77,1.77,0,0,0-.29-1.15,1.24,1.24,0,0,0-1-.33,1.06,1.06,0,0,0-.93.45A2.42,2.42,0,0,0,56.93,23v2.55A2.34,2.34,0,0,0,57.26,27a1.18,1.18,0,0,0,1,.44,1.05,1.05,0,0,0,.88-.32,1.86,1.86,0,0,0,.27-1.16Z"/><path class="cls-1" d="M63.57,23a2,2,0,0,1,.61-.66A1.45,1.45,0,0,1,65,22.1a1.58,1.58,0,0,1,1.34.67,3.47,3.47,0,0,1,.5,2.06v3.73H65.14V24.82a2.4,2.4,0,0,0-.17-1.1.57.57,0,0,0-.54-.32,1,1,0,0,0-.5.12,1,1,0,0,0-.36.32v4.72H61.93V19.42h1.64Z"/><path class="cls-1" d="M70.3,28.68a2.38,2.38,0,0,1-2-.86,3.5,3.5,0,0,1-.69-2.24v-.24A3.79,3.79,0,0,1,68.33,23a2.17,2.17,0,0,1,1.87-.91,2.06,2.06,0,0,1,1.72.77A3.31,3.31,0,0,1,72.51,25v.9H69.32A2.22,2.22,0,0,0,69.63,27a1,1,0,0,0,.86.41,2.49,2.49,0,0,0,.83-.11,4,4,0,0,0,.71-.36l.43,1a2.78,2.78,0,0,1-.92.52A3.63,3.63,0,0,1,70.3,28.68Zm-.1-5.28a.67.67,0,0,0-.62.36,2.57,2.57,0,0,0-.25,1H70.9v-.15a2.2,2.2,0,0,0-.16-.9A.57.57,0,0,0,70.2,23.4Z"/><path class="cls-1" d="M75.7,27.39a.59.59,0,0,0,.53-.26,1.28,1.28,0,0,0,.18-.74H77.9l0,0a2.15,2.15,0,0,1-.62,1.63,2.18,2.18,0,0,1-1.6.63,2.22,2.22,0,0,1-1.91-.89,3.81,3.81,0,0,1-.67-2.31v-.17A3.81,3.81,0,0,1,73.79,23a2.22,2.22,0,0,1,1.9-.9,2.12,2.12,0,0,1,1.64.66,2.45,2.45,0,0,1,.59,1.78v0h-1.5a1.76,1.76,0,0,0-.18-.85.59.59,0,0,0-.54-.32.71.71,0,0,0-.71.52,3.82,3.82,0,0,0-.2,1.39v.17a3.81,3.81,0,0,0,.2,1.4A.72.72,0,0,0,75.7,27.39Z"/><path class="cls-1" d="M80.71,25.9h-.3v2.66H78.76V19.42h1.65v5.2h.27l1.15-2.4h1.91L82,25.08l2,3.48H82.1Z"/><path class="cls-1" d="M89.05,20.64v1.58h.86V23.4h-.86v3.23a1,1,0,0,0,.12.57.36.36,0,0,0,.32.17h.19l.19-.05L90,28.53l-.45.12a3.43,3.43,0,0,1-.48,0,1.54,1.54,0,0,1-1.24-.49,2.3,2.3,0,0,1-.43-1.55V23.4h-.77V22.22h.77V20.64Z"/><path class="cls-1" d="M90.63,25.33A3.79,3.79,0,0,1,91.31,23a2.5,2.5,0,0,1,3.84,0,3.67,3.67,0,0,1,.7,2.33v.14a3.7,3.7,0,0,1-.69,2.32,2.52,2.52,0,0,1-3.84,0,3.68,3.68,0,0,1-.69-2.32Zm1.65.14a3.57,3.57,0,0,0,.22,1.4.78.78,0,0,0,1.47,0,3.57,3.57,0,0,0,.22-1.4v-.14a3.63,3.63,0,0,0-.22-1.4.76.76,0,0,0-.74-.53.75.75,0,0,0-.73.53,3.67,3.67,0,0,0-.22,1.4Z"/><path class="cls-1" d="M98.25,22.22l.07.89a2.08,2.08,0,0,1,.66-.74,1.49,1.49,0,0,1,.87-.27,1.48,1.48,0,0,1,1.27.63,3.36,3.36,0,0,1,.46,2v3.85H99.93V24.71a2.21,2.21,0,0,0-.17-1,.57.57,0,0,0-.53-.3,1,1,0,0,0-.49.13,1.09,1.09,0,0,0-.37.37v4.66H96.71V22.22Z"/><path class="cls-1" d="M107.64,27.39a.59.59,0,0,0,.53-.26,1.28,1.28,0,0,0,.18-.74h1.49l0,0a2.15,2.15,0,0,1-.62,1.63,2.18,2.18,0,0,1-1.6.63,2.22,2.22,0,0,1-1.91-.89,3.74,3.74,0,0,1-.67-2.31v-.17a3.74,3.74,0,0,1,.67-2.31,2.22,2.22,0,0,1,1.9-.9,2.12,2.12,0,0,1,1.64.66,2.45,2.45,0,0,1,.59,1.78v0h-1.5a1.76,1.76,0,0,0-.18-.85.59.59,0,0,0-.54-.32.73.73,0,0,0-.72.52,4.08,4.08,0,0,0-.19,1.39v.17a4.07,4.07,0,0,0,.19,1.4A.74.74,0,0,0,107.64,27.39Z"/><path class="cls-1" d="M110.49,25.33a3.73,3.73,0,0,1,.69-2.33,2.26,2.26,0,0,1,1.92-.9A2.28,2.28,0,0,1,115,23a3.73,3.73,0,0,1,.69,2.33v.14a3.7,3.7,0,0,1-.69,2.32,2.52,2.52,0,0,1-3.84,0,3.68,3.68,0,0,1-.69-2.32Zm1.65.14a3.57,3.57,0,0,0,.22,1.4.77.77,0,0,0,.75.52.74.74,0,0,0,.72-.52,3.55,3.55,0,0,0,.23-1.4v-.14a3.61,3.61,0,0,0-.23-1.4.75.75,0,0,0-.73-.53.76.76,0,0,0-.74.53,3.67,3.67,0,0,0-.22,1.4Z"/><path class="cls-1" d="M119.56,23.65l-.56,0a.69.69,0,0,0-.46.15.9.9,0,0,0-.29.41v4.37h-1.64V22.22h1.54l.06.9a2,2,0,0,1,.47-.75.91.91,0,0,1,.65-.27l.21,0,.19.05Z"/><path class="cls-1" d="M120,25.33A3.73,3.73,0,0,1,120.7,23a2.26,2.26,0,0,1,1.92-.9,2.28,2.28,0,0,1,1.92.9,3.73,3.73,0,0,1,.69,2.33v.14a3.7,3.7,0,0,1-.69,2.32,2.26,2.26,0,0,1-1.91.89,2.28,2.28,0,0,1-1.93-.89,3.68,3.68,0,0,1-.68-2.32Zm1.64.14a3.76,3.76,0,0,0,.22,1.4.77.77,0,0,0,.75.52.75.75,0,0,0,.73-.52,3.76,3.76,0,0,0,.22-1.4v-.14a3.84,3.84,0,0,0-.22-1.4.77.77,0,0,0-.74-.53.76.76,0,0,0-.74.53,3.87,3.87,0,0,0-.22,1.4Z"/><path class="cls-1" d="M127.64,22.22l.07.89a2.08,2.08,0,0,1,.66-.74,1.57,1.57,0,0,1,2.14.36,3.44,3.44,0,0,1,.46,2v3.85h-1.65V24.71a2.06,2.06,0,0,0-.18-1,.56.56,0,0,0-.52-.3,1,1,0,0,0-.5.13,1.19,1.19,0,0,0-.37.37v4.66H126.1V22.22Z"/><path class="cls-1" d="M135.2,28.56a2.75,2.75,0,0,1-.16-.46,4,4,0,0,1-.09-.5,2.15,2.15,0,0,1-.55.78,1.24,1.24,0,0,1-.84.3,1.76,1.76,0,0,1-1.34-.5,2,2,0,0,1-.46-1.39,1.76,1.76,0,0,1,.61-1.44,2.76,2.76,0,0,1,1.83-.52h.72v-.52a1.33,1.33,0,0,0-.17-.73.6.6,0,0,0-.52-.26.55.55,0,0,0-.47.21,1,1,0,0,0-.16.58H132v0a1.7,1.7,0,0,1,.61-1.39,2.49,2.49,0,0,1,1.72-.58,2.25,2.25,0,0,1,1.62.58,2.1,2.1,0,0,1,.62,1.64v2.6a5.49,5.49,0,0,0,.07.84,4.68,4.68,0,0,0,.2.8ZM134,27.46a1,1,0,0,0,.58-.2,1,1,0,0,0,.35-.49v-1h-.72a.67.67,0,0,0-.6.27,1.14,1.14,0,0,0-.2.68.86.86,0,0,0,.16.53A.52.52,0,0,0,134,27.46Z"/><path class="cls-1" d="M139.6,26.22l.08.48h0l.08-.48.78-4h1.73l-1.81,6.34h-1.61l-1.81-6.34h1.74Z"/><path class="cls-1" d="M144.67,20.68H143V19.42h1.65Zm0,7.88H143V22.22h1.65Z"/><path class="cls-1" d="M148.81,23.65l-.56,0a.69.69,0,0,0-.46.15.9.9,0,0,0-.29.41v4.37h-1.64V22.22h1.54l.06.9a2,2,0,0,1,.47-.75.91.91,0,0,1,.65-.27l.21,0,.19.05Z"/><path class="cls-1" d="M152.89,27.66a2.09,2.09,0,0,1-.63.76A1.65,1.65,0,0,1,150,28a3.67,3.67,0,0,1-.49-2.12V22.22h1.65v3.67a2.8,2.8,0,0,0,.17,1.17.54.54,0,0,0,.52.33,1.19,1.19,0,0,0,.51-.11,1,1,0,0,0,.36-.32V22.22h1.66v6.34h-1.35Z"/><path class="cls-1" d="M158.31,26.91a.63.63,0,0,0-.21-.48,3.47,3.47,0,0,0-.84-.49,4.29,4.29,0,0,1-1.45-.81,1.5,1.5,0,0,1-.49-1.16,1.7,1.7,0,0,1,.62-1.32,2.4,2.4,0,0,1,1.63-.55,2.47,2.47,0,0,1,1.71.57,1.75,1.75,0,0,1,.6,1.43v0h-1.59a1.05,1.05,0,0,0-.18-.64.6.6,0,0,0-.53-.24.68.68,0,0,0-.48.18.59.59,0,0,0-.2.46.55.55,0,0,0,.19.45,3.64,3.64,0,0,0,.85.48,4.2,4.2,0,0,1,1.49.81,1.71,1.71,0,0,1-.16,2.54,2.68,2.68,0,0,1-1.71.51,2.39,2.39,0,0,1-1.75-.63,1.86,1.86,0,0,1-.62-1.43l0,0h1.5a1,1,0,0,0,.25.74.88.88,0,0,0,.64.23.73.73,0,0,0,.54-.18A.6.6,0,0,0,158.31,26.91Z"/></svg>