<svg id="Calque_1" data-name="Calque 1" xmlns="http://www.w3.org/2000/svg" viewBox="0 0 128.24 108.46"><defs><style>.cls-1,.cls-2{fill:#3a81c3;}.cls-2{stroke:#3a81c3;stroke-miterlimit:10;}</style></defs><path class="cls-1" d="M65.73,68.51a17.78,17.78,0,1,1-1-35.53,18.74,18.74,0,0,1,8.63,1.85,18.29,18.29,0,0,1,5.54-1.61,22.91,22.91,0,0,0-13.35-3.79C53.2,29.78,43.45,39.66,43.78,51.5s10.62,21.16,23,20.82a22.94,22.94,0,0,0,12.18-3.87,18.17,18.17,0,0,1-5.81-1.71A18.43,18.43,0,0,1,65.73,68.51Z"/><line class="cls-2" x1="52.67" y1="36.37" x2="46.64" y2="27.35"/><circle class="cls-1" cx="45.63" cy="26.41" r="2.02"/><line class="cls-2" x1="46.08" y1="55.05" x2="36.76" y2="59.27"/><circle class="cls-1" cx="35.69" cy="60.13" r="2.02"/><line class="cls-2" x1="47.45" y1="58.63" x2="42.37" y2="63.12"/><circle class="cls-1" cx="41.52" cy="64.2" r="2.02"/><line class="cls-2" x1="56.24" y1="34.17" x2="53.53" y2="26.07"/><circle class="cls-1" cx="52.81" cy="24.9" r="2.02"/><line class="cls-2" x1="53.77" y1="66.87" x2="47.75" y2="75.27"/><circle class="cls-1" cx="47.29" cy="76.56" r="2.02"/><line class="cls-2" x1="60.37" y1="32.24" x2="60" y2="27.3"/><circle class="cls-1" cx="60.04" cy="26.2" r="1.4"/><line class="cls-2" x1="60.06" y1="69.59" x2="58.99" y2="78.28"/><circle class="cls-1" cx="58.95" cy="79.41" r="1.4"/><line class="cls-2" x1="45.53" y1="52.31" x2="37.41" y2="51.99"/><circle class="cls-1" cx="36.08" cy="52.37" r="2.02"/><line class="cls-2" x1="48.55" y1="41.04" x2="44.53" y2="35.44"/><circle class="cls-1" cx="43.7" cy="34.83" r="1.77"/><line class="cls-2" x1="57.34" y1="68.52" x2="53.59" y2="75.84"/><circle class="cls-1" cx="53.44" cy="76.86" r="1.77"/><line class="cls-2" x1="45.53" y1="44.61" x2="39.47" y2="39.93"/><circle class="cls-1" cx="38.19" cy="39.41" r="2.02"/><line class="cls-2" x1="44.96" y1="48.43" x2="30.37" y2="42.78"/><ellipse class="cls-1" cx="28.63" cy="42.21" rx="2.55" ry="2.68" transform="translate(-1.16 0.81) rotate(-1.59)"/><line class="cls-2" x1="64.76" y1="70.44" x2="65.26" y2="82.54"/><ellipse class="cls-1" cx="65.46" cy="83.94" rx="2.71" ry="2.55" transform="translate(-29.44 35.73) rotate(-25.12)"/><line class="cls-2" x1="50.2" y1="63.3" x2="41.15" y2="71.43"/><ellipse class="cls-1" cx="39.91" cy="72.74" rx="2.55" ry="2.59" transform="translate(-42.98 76.27) rotate(-63.68)"/><path class="cls-1" d="M64.87,36c-8.6.24-15.39,7.11-15.16,15.35s7.39,14.73,16,14.49,15.38-7.11,15.15-15.35S73.47,35.76,64.87,36Zm6.62,14.54a4.7,4.7,0,1,1,4.68-4.83A4.76,4.76,0,0,1,71.49,50.54Z"/></svg>