<svg id="Calque_1" data-name="Calque 1" xmlns="http://www.w3.org/2000/svg" viewBox="0 0 111.57 107.18"><defs><style>.cls-1,.cls-2{fill:#fff;}.cls-2{stroke:#fff;stroke-miterlimit:10;}</style></defs><path class="cls-1" d="M64.26,66.08a17.77,17.77,0,1,1-1-35.52,18.42,18.42,0,0,1,8.62,1.85,18.47,18.47,0,0,1,5.54-1.62A22.93,22.93,0,0,0,64.09,27C51.73,27.35,42,37.23,42.31,49.07s10.61,21.17,23,20.82A23,23,0,0,0,77.47,66a18.61,18.61,0,0,1-5.81-1.71A18.63,18.63,0,0,1,64.26,66.08Z"/><line class="cls-2" x1="51.2" y1="33.94" x2="45.17" y2="24.92"/><circle class="cls-1" cx="44.16" cy="23.99" r="2.02"/><line class="cls-2" x1="44.6" y1="52.63" x2="35.29" y2="56.84"/><circle class="cls-1" cx="34.21" cy="57.7" r="2.02"/><line class="cls-2" x1="45.98" y1="56.2" x2="40.9" y2="60.69"/><circle class="cls-1" cx="40.04" cy="61.78" r="2.02"/><line class="cls-2" x1="54.77" y1="31.74" x2="52.06" y2="23.64"/><circle class="cls-1" cx="51.34" cy="22.47" r="2.02"/><line class="cls-2" x1="52.3" y1="64.44" x2="46.28" y2="72.84"/><circle class="cls-1" cx="45.82" cy="74.14" r="2.02"/><line class="cls-2" x1="58.89" y1="29.82" x2="58.52" y2="24.88"/><circle class="cls-1" cx="58.57" cy="23.78" r="1.4"/><line class="cls-2" x1="58.59" y1="67.16" x2="57.51" y2="75.85"/><circle class="cls-1" cx="57.48" cy="76.99" r="1.4"/><line class="cls-2" x1="44.05" y1="49.88" x2="35.93" y2="49.57"/><circle class="cls-1" cx="34.61" cy="49.95" r="2.02"/><line class="cls-2" x1="47.08" y1="38.61" x2="43.05" y2="33.01"/><circle class="cls-1" cx="42.22" cy="32.41" r="1.77"/><line class="cls-2" x1="55.87" y1="66.09" x2="52.11" y2="73.41"/><circle class="cls-1" cx="51.97" cy="74.43" r="1.77"/><line class="cls-2" x1="44.05" y1="42.18" x2="38" y2="37.5"/><circle class="cls-1" cx="36.72" cy="36.98" r="2.02"/><line class="cls-2" x1="43.49" y1="46" x2="28.9" y2="40.36"/><ellipse class="cls-1" cx="27.16" cy="39.79" rx="2.55" ry="2.68" transform="translate(-1.1 0.77) rotate(-1.59)"/><line class="cls-2" x1="63.29" y1="68.02" x2="63.79" y2="80.12"/><ellipse class="cls-1" cx="63.99" cy="81.51" rx="2.71" ry="2.55" transform="translate(-28.55 34.87) rotate(-25.12)"/><line class="cls-2" x1="48.72" y1="60.87" x2="39.68" y2="69"/><ellipse class="cls-1" cx="38.44" cy="70.31" rx="2.55" ry="2.59" transform="translate(-41.62 73.59) rotate(-63.68)"/><path class="cls-1" d="M63.39,33.57C54.8,33.81,48,40.69,48.24,48.93s7.39,14.72,16,14.48S79.61,56.3,79.38,48.06,72,33.33,63.39,33.57Zm7.12,14.69a4.7,4.7,0,1,1,4.68-4.83A4.77,4.77,0,0,1,70.51,48.26Z"/></svg>